<?xml version="1.0" encoding="utf-8"?>
<!-- Generator: Adobe Illustrator 16.0.0, SVG Export Plug-In . SVG Version: 6.00 Build 0)  -->
<!DOCTYPE svg PUBLIC "-//W3C//DTD SVG 1.1//EN" "http://www.w3.org/Graphics/SVG/1.1/DTD/svg11.dtd">
<svg version="1.1" id="Layer_1" xmlns="http://www.w3.org/2000/svg" xmlns:xlink="http://www.w3.org/1999/xlink" x="0px" y="0px"
	 width="300px" height="300px" viewBox="0 0 300 300" enable-background="new 0 0 300 300" xml:space="preserve">
<g>
	<g>
		<path fill="#F1582B" d="M149.312,295.259c-80.772,0-146.485-65.709-146.485-146.485C2.826,68.006,68.54,2.288,149.312,2.288
			c80.772,0,146.485,65.718,146.485,146.485C295.797,229.55,230.084,295.259,149.312,295.259z M149.312,12.054
			c-75.389,0-136.72,61.331-136.72,136.72s61.331,136.72,136.72,136.72s136.72-61.331,136.72-136.72S224.7,12.054,149.312,12.054z"
			/>
	</g>
	<g>
		<path fill="#F1582B" d="M207.071,216.39c-1.249,0-2.499-0.478-3.452-1.431L92.801,104.141c-1.907-1.907-1.907-4.997,0-6.905
			c1.907-1.907,4.997-1.907,6.905,0l110.817,110.818c1.907,1.907,1.907,4.997,0,6.904C209.57,215.912,208.32,216.39,207.071,216.39z
			"/>
	</g>
	<g>
		<path fill="#F1582B" d="M96.253,216.39c-1.249,0-2.499-0.478-3.452-1.431c-1.907-1.907-1.907-4.997,0-6.904L203.619,97.236
			c1.907-1.907,4.997-1.907,6.904,0c1.907,1.908,1.907,4.998,0,6.905L99.706,214.959C98.752,215.912,97.503,216.39,96.253,216.39z"
			/>
	</g>
</g>
</svg>
